<?xml version="1.0" encoding="UTF-8"?>
<!DOCTYPE svg PUBLIC "-//W3C//DTD SVG 1.1//EN" "http://www.w3.org/Graphics/SVG/1.1/DTD/svg11.dtd">
<svg xmlns="http://www.w3.org/2000/svg" version="1.1" width="220px" height="90px" style="shape-rendering:geometricPrecision; text-rendering:geometricPrecision; image-rendering:optimizeQuality; fill-rule:evenodd; clip-rule:evenodd" xmlns:xlink="http://www.w3.org/1999/xlink">
<g><path style="opacity:0.412" fill="#88b39c" d="M 31.5,29.5 C 30.6829,27.0314 30.1829,24.3647 30,21.5C 28.1197,20.0705 26.6197,20.4038 25.5,22.5C 26.3202,24.1112 27.6536,24.7778 29.5,24.5C 29.5,25.8333 29.5,27.1667 29.5,28.5C 27.8333,28.5 26.1667,28.5 24.5,28.5C 23.969,22.9973 25.1357,17.9973 28,13.5C 30.937,18.332 32.1037,23.6653 31.5,29.5 Z"/></g>
<g><path style="opacity:0.169" fill="#c1e8d9" d="M 122.5,26.5 C 119.612,25.9898 117.279,26.6565 115.5,28.5C 114.596,27.791 114.263,26.791 114.5,25.5C 117.385,25.1936 120.052,25.5269 122.5,26.5 Z"/></g>
<g><path style="opacity:0.173" fill="#b3d7c4" d="M 146.5,26.5 C 148.607,25.5318 150.941,25.1984 153.5,25.5C 153.768,27.099 153.434,28.4324 152.5,29.5C 152.5,28.5 152.5,27.5 152.5,26.5C 150.5,26.5 148.5,26.5 146.5,26.5 Z"/></g>
<g><path style="opacity:1" fill="#2e2e2e" d="M 206.5,44.5 C 208.5,45.1667 210.5,45.8333 212.5,46.5C 209.679,46.5454 207.346,47.5454 205.5,49.5C 204.761,49.369 204.094,49.5357 203.5,50C 204.252,50.6708 204.586,51.5041 204.5,52.5C 204.5,52.8333 204.5,53.1667 204.5,53.5C 203.508,55.4561 202.508,57.4561 201.5,59.5C 200.883,59.6107 200.383,59.944 200,60.5C 199.51,59.2068 199.343,57.8734 199.5,56.5C 199.961,54.4496 200.628,52.4496 201.5,50.5C 199.328,50.3241 196.995,50.1575 194.5,50C 193.446,48.6124 193.28,47.1124 194,45.5C 199.875,39.2934 205.375,32.7934 210.5,26C 212.134,25.5065 213.801,25.3398 215.5,25.5C 215.567,27.4008 215.233,29.2341 214.5,31C 211.191,35.1189 208.524,39.6189 206.5,44.5 Z M 203.5,42.5 C 203.489,44.6859 202.489,45.5192 200.5,45C 201.373,43.955 202.373,43.1217 203.5,42.5 Z"/></g>
<g><path style="opacity:1" fill="#246742" d="M 85.5,33.5 C 83.0521,34.4731 80.3854,34.8064 77.5,34.5C 77.3893,33.8826 77.056,33.3826 76.5,33C 74.5273,32.5045 72.5273,32.3379 70.5,32.5C 69.8485,31.9094 69.1818,31.2427 68.5,30.5C 67.8524,32.1492 66.8524,33.4825 65.5,34.5C 64.4808,32.5405 64.4808,30.5405 65.5,28.5C 71.4493,24.4801 77.4493,24.6468 83.5,29C 84.5822,30.3297 85.2488,31.8297 85.5,33.5 Z"/></g>
<g><path style="opacity:1" fill="#18623a" d="M 31.5,29.5 C 33.7598,32.2641 36.2598,34.9307 39,37.5C 40.122,39.4068 40.9553,41.4068 41.5,43.5C 41.5,44.5 41.5,45.5 41.5,46.5C 40.5,46.5 39.5,46.5 38.5,46.5C 37.1667,46.5 35.8333,46.5 34.5,46.5C 29.8333,45.1667 25.1667,45.1667 20.5,46.5C 18.901,46.2322 17.5676,46.5655 16.5,47.5C 15.5084,47.3284 14.8417,47.6618 14.5,48.5C 14.5,49.1667 14.1667,49.5 13.5,49.5C 12.868,44.8641 14.0346,40.5307 17,36.5C 18.4133,34.5864 20.2466,33.2531 22.5,32.5C 23.3624,31.2342 24.0291,29.9008 24.5,28.5C 26.1667,28.5 27.8333,28.5 29.5,28.5C 29.5,27.1667 29.5,25.8333 29.5,24.5C 27.6536,24.7778 26.3202,24.1112 25.5,22.5C 26.6197,20.4038 28.1197,20.0705 30,21.5C 30.1829,24.3647 30.6829,27.0314 31.5,29.5 Z"/></g>
<g><path style="opacity:1" fill="#2d6d4a" d="M 113.5,34.5 C 112.279,33.9717 111.113,33.305 110,32.5C 109.667,32.8333 109.333,33.1667 109,33.5C 108.667,37.1667 108.333,40.8333 108,44.5C 106.67,45.5822 105.17,46.2488 103.5,46.5C 107.471,43.1447 108.304,39.1447 106,34.5C 101.585,31.4504 97.9181,32.1171 95,36.5C 94.2119,39.7719 94.7119,42.7719 96.5,45.5C 93.1642,44.4773 91.6642,42.144 92,38.5C 91.3333,37.8333 90.6667,37.1667 90,36.5C 88.6253,38.9368 88.1253,41.6035 88.5,44.5C 85.8089,31.0148 91.4756,24.8482 105.5,26C 109.748,27.4129 112.415,30.2462 113.5,34.5 Z"/></g>
<g><path style="opacity:0.624" fill="#729e88" d="M 183.5,26.5 C 185.607,25.5318 187.941,25.1984 190.5,25.5C 190.827,34.6822 190.493,43.6822 189.5,52.5C 189.5,43.8333 189.5,35.1667 189.5,26.5C 187.5,26.5 185.5,26.5 183.5,26.5 Z"/></g>
<g><path style="opacity:1" fill="#216640" d="M 122.5,26.5 C 123.659,31.4678 124.659,36.4678 125.5,41.5C 125.409,43.6977 126.075,44.0311 127.5,42.5C 127.114,45.2617 125.781,46.2617 123.5,45.5C 122.534,47.396 122.201,49.396 122.5,51.5C 125.279,51.7214 127.946,51.388 130.5,50.5C 128.012,52.3878 125.012,53.0545 121.5,52.5C 119.5,44.5 117.5,36.5 115.5,28.5C 117.279,26.6565 119.612,25.9898 122.5,26.5 Z"/></g>
<g><path style="opacity:1" fill="#1e653e" d="M 183.5,26.5 C 185.5,26.5 187.5,26.5 189.5,26.5C 189.5,35.1667 189.5,43.8333 189.5,52.5C 187.076,52.8076 184.743,52.4742 182.5,51.5C 179.56,47.278 176.894,42.9447 174.5,38.5C 173.452,36.0673 172.786,36.0673 172.5,38.5C 172.04,35.7402 172.04,33.0735 172.5,30.5C 172.747,29.2867 173.414,28.62 174.5,28.5C 177.557,32.2576 180.39,36.2576 183,40.5C 183.499,35.8452 183.666,31.1785 183.5,26.5 Z"/></g>
<g><path style="opacity:0.153" fill="#cdefde" d="M 85.5,33.5 C 86.0431,33.56 86.3764,33.8933 86.5,34.5C 83.3553,35.8032 80.3553,35.8032 77.5,34.5C 80.3854,34.8064 83.0521,34.4731 85.5,33.5 Z"/></g>
<g><path style="opacity:0.879" fill="#497760" d="M 173.5,26.5 C 171.5,26.5 169.5,26.5 167.5,26.5C 167.5,35.1667 167.5,43.8333 167.5,52.5C 166.507,43.6822 166.173,34.6822 166.5,25.5C 169.059,25.1984 171.393,25.5318 173.5,26.5 Z"/></g>
<g><path style="opacity:0.575" fill="#7fa792" d="M 155.5,26.5 C 157.607,25.5318 159.941,25.1984 162.5,25.5C 162.827,34.6822 162.493,43.6822 161.5,52.5C 161.5,43.8333 161.5,35.1667 161.5,26.5C 159.5,26.5 157.5,26.5 155.5,26.5 Z"/></g>
<g><path style="opacity:0.702" fill="#72a68d" d="M 85.5,44.5 C 85.5,42.5 85.5,40.5 85.5,38.5C 81.1667,38.5 76.8333,38.5 72.5,38.5C 72.5,39.8333 72.5,41.1667 72.5,42.5C 74.7354,42.2053 76.7354,42.5386 78.5,43.5C 76.1667,43.5 73.8333,43.5 71.5,43.5C 71.5,41.5 71.5,39.5 71.5,37.5C 76.5,37.5 81.5,37.5 86.5,37.5C 86.8016,40.0593 86.4682,42.3926 85.5,44.5 Z"/></g>
<g><path style="opacity:1" fill="#155d38" d="M 155.5,26.5 C 157.5,26.5 159.5,26.5 161.5,26.5C 161.5,35.1667 161.5,43.8333 161.5,52.5C 159.5,52.5 157.5,52.5 155.5,52.5C 155.5,43.8333 155.5,35.1667 155.5,26.5 Z"/></g>
<g><path style="opacity:1" fill="#075b30" d="M 173.5,26.5 C 174.338,26.8417 174.672,27.5084 174.5,28.5C 173.414,28.62 172.747,29.2867 172.5,30.5C 172.04,33.0735 172.04,35.7402 172.5,38.5C 172.5,43.1667 172.5,47.8333 172.5,52.5C 170.833,52.5 169.167,52.5 167.5,52.5C 167.5,43.8333 167.5,35.1667 167.5,26.5C 169.5,26.5 171.5,26.5 173.5,26.5 Z"/></g>
<g><path style="opacity:1" fill="#2c6d48" d="M 65.5,28.5 C 64.4808,30.5405 64.4808,32.5405 65.5,34.5C 66.8524,33.4825 67.8524,32.1492 68.5,30.5C 69.1818,31.2427 69.8485,31.9094 70.5,32.5C 65.4413,37.3183 65.7747,41.8183 71.5,46C 72.7932,46.49 74.1266,46.6567 75.5,46.5C 72.7699,47.8166 69.9365,47.8166 67,46.5C 67.0187,48.1075 67.1854,49.7741 67.5,51.5C 59.7244,47.2498 57.5577,40.9164 61,32.5C 61.8763,30.3645 63.3763,29.0312 65.5,28.5 Z"/></g>
<g><path style="opacity:1" fill="#2a6b47" d="M 146.5,26.5 C 148.5,26.5 150.5,26.5 152.5,26.5C 152.5,27.5 152.5,28.5 152.5,29.5C 151.102,37.1008 149.102,44.4341 146.5,51.5C 146.018,48.2791 146.018,44.9458 146.5,41.5C 145.5,41.5 144.5,41.5 143.5,41.5C 143.882,36.2558 144.882,31.2558 146.5,26.5 Z"/></g>
<g><path style="opacity:0.361" fill="#acdec6" d="M 127.5,40.5 C 127.5,41.1667 127.5,41.8333 127.5,42.5C 126.075,44.0311 125.409,43.6977 125.5,41.5C 126.167,41.1667 126.833,40.8333 127.5,40.5 Z"/></g>
<g><path style="opacity:1" fill="#1f653e" d="M 143.5,41.5 C 144.5,41.5 145.5,41.5 146.5,41.5C 146.018,44.9458 146.018,48.2791 146.5,51.5C 144.034,52.6341 141.367,52.8007 138.5,52C 136.993,48.3096 135.993,44.4763 135.5,40.5C 134.934,36.1943 134.268,35.861 133.5,39.5C 132.964,43.3139 131.964,46.9806 130.5,50.5C 127.946,51.388 125.279,51.7214 122.5,51.5C 122.201,49.396 122.534,47.396 123.5,45.5C 125.781,46.2617 127.114,45.2617 127.5,42.5C 127.5,41.8333 127.5,41.1667 127.5,40.5C 128.341,35.4678 129.341,30.4678 130.5,25.5C 133.247,25.1866 135.914,25.52 138.5,26.5C 139.725,31.7699 141.392,36.7699 143.5,41.5 Z"/></g>
<g><path style="opacity:0.369" fill="#a8cdb4" d="M 135.5,40.5 C 134.833,40.1667 134.167,39.8333 133.5,39.5C 134.268,35.861 134.934,36.1943 135.5,40.5 Z"/></g>
<g><path style="opacity:0.565" fill="#6ea78b" d="M 174.5,38.5 C 173.833,43.1667 173.167,47.8333 172.5,52.5C 172.5,47.8333 172.5,43.1667 172.5,38.5C 172.786,36.0673 173.452,36.0673 174.5,38.5 Z"/></g>
<g><path style="opacity:1" fill="#22673f" d="M 85.5,44.5 C 83.4183,49.8912 79.4183,52.8912 73.5,53.5C 71.2014,53.4008 69.2014,52.7342 67.5,51.5C 67.1854,49.7741 67.0187,48.1075 67,46.5C 69.9365,47.8166 72.7699,47.8166 75.5,46.5C 76.6935,45.7281 77.6935,44.7281 78.5,43.5C 76.7354,42.5386 74.7354,42.2053 72.5,42.5C 72.5,41.1667 72.5,39.8333 72.5,38.5C 76.8333,38.5 81.1667,38.5 85.5,38.5C 85.5,40.5 85.5,42.5 85.5,44.5 Z"/></g>
<g><path style="opacity:0.639" fill="#7a7a7a" d="M 206.5,44.5 C 209.247,44.1866 211.914,44.52 214.5,45.5C 214.043,46.2975 213.376,46.6309 212.5,46.5C 210.5,45.8333 208.5,45.1667 206.5,44.5 Z"/></g>
<g><path style="opacity:1" fill="#88af9f" d="M 41.5,43.5 C 42.2344,44.8775 42.9011,46.3775 43.5,48C 42.9056,48.4643 42.2389,48.631 41.5,48.5C 40.8333,47.1667 40.1667,47.1667 39.5,48.5C 38.8333,48.5 38.5,48.1667 38.5,47.5C 38.5,47.1667 38.5,46.8333 38.5,46.5C 39.5,46.5 40.5,46.5 41.5,46.5C 41.5,45.5 41.5,44.5 41.5,43.5 Z"/></g>
<g><path style="opacity:1" fill="#246842" d="M 113.5,34.5 C 115.806,49.3549 109.472,55.1883 94.5,52C 91.1828,50.5198 89.1828,48.0198 88.5,44.5C 88.1253,41.6035 88.6253,38.9368 90,36.5C 90.6667,37.1667 91.3333,37.8333 92,38.5C 91.6642,42.144 93.1642,44.4773 96.5,45.5C 98.7638,46.2186 101.097,46.552 103.5,46.5C 105.17,46.2488 106.67,45.5822 108,44.5C 108.333,40.8333 108.667,37.1667 109,33.5C 109.333,33.1667 109.667,32.8333 110,32.5C 111.113,33.305 112.279,33.9717 113.5,34.5 Z"/></g>
<g><path style="opacity:1" fill="#51c488" d="M 20.5,46.5 C 25.1667,46.5 29.8333,46.5 34.5,46.5C 35.5676,47.4345 36.901,47.7678 38.5,47.5C 38.5,48.1667 38.8333,48.5 39.5,48.5C 40.1667,48.5 40.8333,48.5 41.5,48.5C 47.8542,51.5741 49.1875,56.2408 45.5,62.5C 44.8333,62.5 44.5,62.1667 44.5,61.5C 44.0133,60.5266 43.5133,59.5266 43,58.5C 41.7083,59.7911 40.5417,59.7911 39.5,58.5C 39.6369,51.3742 38.9702,51.0408 37.5,57.5C 36.8333,55.5 36.1667,53.5 35.5,51.5C 35.0358,53.9749 34.0358,55.9749 32.5,57.5C 28.9408,57.2845 25.4408,57.6178 22,58.5C 21.0546,58.0946 20.3879,57.428 20,56.5C 16.8714,58.2632 13.7047,59.9298 10.5,61.5C 9.23532,60.4855 8.56865,58.9855 8.5,57C 8.00997,53.0002 9.67663,50.5002 13.5,49.5C 14.1667,49.5 14.5,49.1667 14.5,48.5C 15.4916,48.6716 16.1583,48.3382 16.5,47.5C 18.099,47.7678 19.4324,47.4345 20.5,46.5 Z M 32.5,57.5 C 34.1667,58.1667 35.8333,58.8333 37.5,59.5C 28.4,58.4277 19.4,59.0944 10.5,61.5C 13.7047,59.9298 16.8714,58.2632 20,56.5C 20.3879,57.428 21.0546,58.0946 22,58.5C 25.4408,57.6178 28.9408,57.2845 32.5,57.5 Z M 39.5,58.5 C 40.5417,59.7911 41.7083,59.7911 43,58.5C 43.5133,59.5266 44.0133,60.5266 44.5,61.5C 41.9902,61.0733 39.6568,60.4067 37.5,59.5C 38.1667,59.1667 38.8333,58.8333 39.5,58.5 Z"/></g>
<g><path style="opacity:0.039" fill="#b3b4b3" d="M 205.5,49.5 C 205.737,50.791 205.404,51.791 204.5,52.5C 204.586,51.5041 204.252,50.6708 203.5,50C 204.094,49.5357 204.761,49.369 205.5,49.5 Z"/></g>
<g><path style="opacity:0.329" fill="#a0eec9" d="M 39.5,58.5 C 38.8333,58.8333 38.1667,59.1667 37.5,59.5C 35.8333,58.8333 34.1667,58.1667 32.5,57.5C 34.0358,55.9749 35.0358,53.9749 35.5,51.5C 36.1667,53.5 36.8333,55.5 37.5,57.5C 38.9702,51.0408 39.6369,51.3742 39.5,58.5 Z"/></g>
<g><path style="opacity:1" fill="#79ab60" d="M 115.5,55.5 C 118.9,55.0317 121.233,56.3651 122.5,59.5C 120.922,60.2978 119.256,60.7978 117.5,61C 122.135,61.7914 123.468,64.2914 121.5,68.5C 117.238,71.4693 113.905,70.636 111.5,66C 113.898,65.6256 116.231,65.6256 118.5,66C 115.398,65.1189 113.064,63.2855 111.5,60.5C 112.16,58.1853 113.493,56.5186 115.5,55.5 Z"/></g>
<g><path style="opacity:0.886" fill="#779e5d" d="M 204.5,53.5 C 205.801,55.6719 206.801,58.0052 207.5,60.5C 205.435,60.4828 203.435,60.1495 201.5,59.5C 202.508,57.4561 203.508,55.4561 204.5,53.5 Z"/></g>
<g><path style="opacity:0.416" fill="#b1d3a3" d="M 129.5,56.5 C 130.479,59.6248 130.813,62.9581 130.5,66.5C 131.833,66.5 133.167,66.5 134.5,66.5C 134.737,67.791 134.404,68.791 133.5,69.5C 132.817,67.8235 131.483,67.1568 129.5,67.5C 129.5,63.8333 129.5,60.1667 129.5,56.5 Z"/></g>
<g><path style="opacity:0.794" fill="#8eb57a" d="M 129.5,56.5 C 127.57,60.3727 126.903,64.706 127.5,69.5C 126.514,65.03 126.181,60.3633 126.5,55.5C 127.791,55.2627 128.791,55.596 129.5,56.5 Z"/></g>
<g><path style="opacity:1" fill="#66a14c" d="M 141.5,55.5 C 142.978,55.238 144.311,55.5713 145.5,56.5C 147.242,60.7254 148.576,65.0587 149.5,69.5C 147.334,69.4211 145.334,68.7545 143.5,67.5C 141.833,68.1667 140.167,68.8333 138.5,69.5C 137.833,69.1667 137.167,68.8333 136.5,68.5C 137.979,64.0596 139.645,59.7263 141.5,55.5 Z"/></g>
<g><path style="opacity:1" fill="#75ac59" d="M 183.5,55.5 C 186.836,55.467 190.003,56.1336 193,57.5C 193.944,60.3471 193.444,62.8471 191.5,65C 192.257,66.5122 193.257,67.8455 194.5,69C 191.975,69.8959 189.808,69.3959 188,67.5C 186.951,69.1066 185.451,69.7733 183.5,69.5C 183.5,64.8333 183.5,60.1667 183.5,55.5 Z M 187.5,59.5 C 189.337,59.6395 189.67,60.3061 188.5,61.5C 187.702,61.0431 187.369,60.3764 187.5,59.5 Z"/></g>
<g><path style="opacity:1" fill="#6fa754" d="M 64.5,55.5 C 65.5,55.5 66.5,55.5 67.5,55.5C 67.5,59.1667 67.5,62.8333 67.5,66.5C 68.8333,66.5 70.1667,66.5 71.5,66.5C 71.5,67.5 71.5,68.5 71.5,69.5C 68.8333,69.5 66.1667,69.5 63.5,69.5C 63.2256,64.737 63.559,60.0704 64.5,55.5 Z"/></g>
<g><path style="opacity:1" fill="#79ad61" d="M 82.5,61.5 C 81.8166,63.1765 80.4832,63.8432 78.5,63.5C 78.5,64.8333 78.5,66.1667 78.5,67.5C 80.4832,67.1568 81.8166,67.8235 82.5,69.5C 79.8333,69.5 77.1667,69.5 74.5,69.5C 74.3343,65.1539 74.501,60.8206 75,56.5C 77.7191,55.5562 80.5525,55.2229 83.5,55.5C 83.5,56.8333 83.5,58.1667 83.5,59.5C 77.5467,59.3723 77.2134,60.039 82.5,61.5 Z"/></g>
<g><path style="opacity:0.565" fill="#aed19f" d="M 82.5,61.5 C 83.404,62.209 83.7373,63.209 83.5,64.5C 78.1667,65.1667 78.1667,65.8333 83.5,66.5C 83.7373,67.791 83.404,68.791 82.5,69.5C 81.8166,67.8235 80.4832,67.1568 78.5,67.5C 78.5,66.1667 78.5,64.8333 78.5,63.5C 80.4832,63.8432 81.8166,63.1765 82.5,61.5 Z"/></g>
<g><path style="opacity:1" fill="#569434" d="M 129.5,56.5 C 129.5,60.1667 129.5,63.8333 129.5,67.5C 131.483,67.1568 132.817,67.8235 133.5,69.5C 131.5,69.5 129.5,69.5 127.5,69.5C 126.903,64.706 127.57,60.3727 129.5,56.5 Z"/></g>
<g><path style="opacity:1" fill="#7eaf67" d="M 152.5,55.5 C 155.85,55.335 159.183,55.5017 162.5,56C 163.337,57.0113 163.67,58.1779 163.5,59.5C 162.167,59.5 160.833,59.5 159.5,59.5C 159.5,62.8333 159.5,66.1667 159.5,69.5C 158.167,69.5 156.833,69.5 155.5,69.5C 155.5,66.1667 155.5,62.8333 155.5,59.5C 154.167,59.5 152.833,59.5 151.5,59.5C 151.433,58.0413 151.766,56.7079 152.5,55.5 Z"/></g>
<g><path style="opacity:1" fill="#73a95a" d="M 170.5,55.5 C 178.032,55.5324 180.865,59.1991 179,66.5C 176.187,70.4413 172.687,71.2747 168.5,69C 164.188,63.7307 164.855,59.2307 170.5,55.5 Z M 171.5,59.5 C 174.243,59.0772 175.576,60.2439 175.5,63C 173.551,67.6345 171.551,67.6345 169.5,63C 169.978,61.6974 170.645,60.5307 171.5,59.5 Z"/></g>
<g><path style="opacity:1" fill="#256744" d="M 37.5,59.5 C 39.6568,60.4067 41.9902,61.0733 44.5,61.5C 44.5,62.1667 44.8333,62.5 45.5,62.5C 47.4044,62.7376 48.7377,63.7376 49.5,65.5C 49.5,67.1667 49.5,68.8333 49.5,70.5C 48.1667,70.5 46.8333,70.5 45.5,70.5C 45.762,69.0222 45.4287,67.6888 44.5,66.5C 43.8281,67.9492 43.1614,69.2825 42.5,70.5C 42.1667,70.5 41.8333,70.5 41.5,70.5C 41.7989,68.396 41.4656,66.396 40.5,64.5C 39.5481,66.0453 39.2148,67.712 39.5,69.5C 38.8333,69.1667 38.1667,68.8333 37.5,68.5C 37.1667,68.5 36.8333,68.5 36.5,68.5C 36.3781,64.1617 36.0447,63.8284 35.5,67.5C 34.391,67.4431 33.391,67.1098 32.5,66.5C 32.3781,62.1617 32.0447,61.8284 31.5,65.5C 30.391,65.4431 29.391,65.1098 28.5,64.5C 28.1667,60.5 27.8333,60.5 27.5,64.5C 26.609,65.1098 25.609,65.4431 24.5,65.5C 23.8333,65.5 23.5,65.8333 23.5,66.5C 23.1667,66.5 22.8333,66.5 22.5,66.5C 21.8333,66.8333 21.1667,67.1667 20.5,67.5C 20.762,66.0222 20.4287,64.6888 19.5,63.5C 18.8333,65.1667 18.1667,66.8333 17.5,68.5C 15.5981,63.2936 14.5981,63.627 14.5,69.5C 14.5,69.8333 14.5,70.1667 14.5,70.5C 14.1667,70.5 13.8333,70.5 13.5,70.5C 13.1667,70.5 12.8333,70.5 12.5,70.5C 12.1667,70.5 11.8333,70.5 11.5,70.5C 10.9969,65.5 10.6636,65.8333 10.5,71.5C 8.83333,71.5 7.16667,71.5 5.5,71.5C 3.95156,66.5968 5.61823,63.2635 10.5,61.5C 19.4,59.0944 28.4,58.4277 37.5,59.5 Z"/></g>
<g><path style="opacity:0.31" fill="#a2eeca" d="M 27.5,64.5 C 27.8333,65.8333 28.1667,65.8333 28.5,64.5C 29.391,65.1098 30.391,65.4431 31.5,65.5C 31.5,66.1667 31.5,66.8333 31.5,67.5C 28.8707,66.2857 26.204,66.2857 23.5,67.5C 23.5,67.1667 23.5,66.8333 23.5,66.5C 24.1667,66.5 24.5,66.1667 24.5,65.5C 25.609,65.4431 26.609,65.1098 27.5,64.5 Z"/></g>
<g><path style="opacity:1" fill="#76a95d" d="M 92.5,55.5 C 100.281,56.091 102.615,60.091 99.5,67.5C 93.4652,71.5435 89.1319,70.0435 86.5,63C 86.9033,59.1078 88.9033,56.6078 92.5,55.5 Z M 93.5,65.5 C 92.3509,65.2089 91.6842,64.3756 91.5,63C 91.9983,59.3896 93.665,58.723 96.5,61C 95.2068,61.49 93.8734,61.6567 92.5,61.5C 92.4326,62.9587 92.7659,64.2921 93.5,65.5 Z"/></g>
<g><path style="opacity:0.945" fill="#76a55d" d="M 104.5,55.5 C 105.822,55.33 106.989,55.6634 108,56.5C 108.499,60.8206 108.666,65.1539 108.5,69.5C 107.167,69.5 105.833,69.5 104.5,69.5C 104.5,64.8333 104.5,60.1667 104.5,55.5 Z"/></g>
<g><path style="opacity:1" fill="#77aa5f" d="M 199.5,56.5 C 199.343,57.8734 199.51,59.2068 200,60.5C 200.383,59.944 200.883,59.6107 201.5,59.5C 202.736,61.0428 204.402,62.0428 206.5,62.5C 208.652,66.9964 207.319,69.6631 202.5,70.5C 199.196,70.3223 197.529,68.6557 197.5,65.5C 205.213,66.5995 205.38,65.5995 198,62.5C 197.059,60.0106 197.559,58.0106 199.5,56.5 Z"/></g>
<g><path style="opacity:0.051" fill="#a5dec3" d="M 20.5,67.5 C 19.8333,67.5 19.5,67.8333 19.5,68.5C 18.3285,69.3446 16.9952,70.0113 15.5,70.5C 15.5,69.8333 15.1667,69.5 14.5,69.5C 14.5981,63.627 15.5981,63.2936 17.5,68.5C 18.1667,66.8333 18.8333,65.1667 19.5,63.5C 20.4287,64.6888 20.762,66.0222 20.5,67.5 Z"/></g>
<g><path style="opacity:0.486" fill="#9fc9b2" d="M 41.5,70.5 C 41.5,70.8333 41.5,71.1667 41.5,71.5C 40.5084,71.6716 39.8417,71.3382 39.5,70.5C 40.8333,70.1667 40.8333,69.8333 39.5,69.5C 39.2148,67.712 39.5481,66.0453 40.5,64.5C 41.4656,66.396 41.7989,68.396 41.5,70.5 Z"/></g>
<g><path style="opacity:1" fill="#4dc285" d="M 22.5,66.5 C 22.5,67.1667 22.8333,67.5 23.5,67.5C 26.204,66.2857 28.8707,66.2857 31.5,67.5C 32.1667,67.5 32.5,67.1667 32.5,66.5C 33.391,67.1098 34.391,67.4431 35.5,67.5C 35.5,68.1667 35.8333,68.5 36.5,68.5C 36.8333,69.8333 37.1667,69.8333 37.5,68.5C 38.1667,68.8333 38.8333,69.1667 39.5,69.5C 39.5,69.8333 39.5,70.1667 39.5,70.5C 37.2646,70.2053 35.2646,70.5386 33.5,71.5C 31.4176,71.528 29.5843,70.8613 28,69.5C 25.9935,70.6687 23.8268,71.3354 21.5,71.5C 21.1667,71.5 20.8333,71.5 20.5,71.5C 20.2648,70.9033 19.7648,70.5699 19,70.5C 16.5667,71.4788 14.0667,72.1455 11.5,72.5C 11.5,71.8333 11.5,71.1667 11.5,70.5C 11.8333,70.5 12.1667,70.5 12.5,70.5C 12.8333,71.8333 13.1667,71.8333 13.5,70.5C 13.8333,70.5 14.1667,70.5 14.5,70.5C 14.8333,70.5 15.1667,70.5 15.5,70.5C 16.9952,70.0113 18.3285,69.3446 19.5,68.5C 20.1667,68.5 20.5,68.1667 20.5,67.5C 21.1667,67.1667 21.8333,66.8333 22.5,66.5 Z"/></g>
<g><path style="opacity:1" fill="#18b469" d="M 20.5,71.5 C 20.0825,72.2216 19.4158,72.7216 18.5,73C 24.5,73.6667 30.5,73.6667 36.5,73C 35.7562,71.9614 34.7562,71.4614 33.5,71.5C 35.2646,70.5386 37.2646,70.2053 39.5,70.5C 39.8417,71.3382 40.5084,71.6716 41.5,71.5C 41.8333,71.5 42.1667,71.5 42.5,71.5C 42.5,72.1667 42.8333,72.5 43.5,72.5C 44.1667,72.5 44.8333,72.5 45.5,72.5C 47.6979,73.1653 50.0312,73.8319 52.5,74.5C 35.8467,75.4995 19.18,75.8328 2.5,75.5C 2.5,74.5 2.5,73.5 2.5,72.5C 5.5,72.5 8.5,72.5 11.5,72.5C 14.0667,72.1455 16.5667,71.4788 19,70.5C 19.7648,70.5699 20.2648,70.9033 20.5,71.5 Z"/></g>
<g><path style="opacity:0.275" fill="#9ff3c6" d="M 20.5,71.5 C 20.8333,71.5 21.1667,71.5 21.5,71.5C 25.5,72.8333 29.5,72.8333 33.5,71.5C 34.7562,71.4614 35.7562,71.9614 36.5,73C 30.5,73.6667 24.5,73.6667 18.5,73C 19.4158,72.7216 20.0825,72.2216 20.5,71.5 Z"/></g>
<g><path style="opacity:0.635" fill="#6dc197" d="M 49.5,65.5 C 51.0017,67.8629 50.6684,70.0295 48.5,72C 50.1341,72.4935 51.8008,72.6602 53.5,72.5C 53.5,73.8333 53.5,75.1667 53.5,76.5C 36.1667,76.5 18.8333,76.5 1.5,76.5C 1.23219,74.901 1.56552,73.5676 2.5,72.5C 2.5,73.5 2.5,74.5 2.5,75.5C 19.18,75.8328 35.8467,75.4995 52.5,74.5C 50.0312,73.8319 47.6979,73.1653 45.5,72.5C 45.7151,71.266 45.0484,71.266 43.5,72.5C 42.8333,72.5 42.5,72.1667 42.5,71.5C 42.5,71.1667 42.5,70.8333 42.5,70.5C 43.1614,69.2825 43.8281,67.9492 44.5,66.5C 45.4287,67.6888 45.762,69.0222 45.5,70.5C 46.8333,70.5 48.1667,70.5 49.5,70.5C 49.5,68.8333 49.5,67.1667 49.5,65.5 Z"/></g>
</svg>
